<svg width="133" height="127" viewBox="0 0 133 127" fill="none" xmlns="http://www.w3.org/2000/svg">
<g filter="url(#filter0_d_1_974)">
<path d="M25.9138 47.0781L26.2368 48.0056C40.9188 45.8445 61.8175 49.0024 78.9395 57.7571L79.1671 57.3119L78.9395 57.7571C89.093 62.9483 97.8777 70.0698 103.307 79.1329C108.728 88.1832 110.825 99.2021 107.557 112.252L107.556 112.253C107.471 112.594 107.124 112.804 106.781 112.719C106.439 112.633 106.229 112.284 106.315 111.94C109.495 99.2394 107.424 88.4746 102.077 79.6284C96.7383 70.7955 88.1546 63.9077 78.3548 58.8975C68.4663 53.8418 57.3059 50.6636 46.8543 49.3307C36.4102 47.9987 26.631 48.5039 19.5166 50.8547L19.5163 50.8548C19.1728 50.9685 18.9815 50.8908 18.8697 50.8153C18.7325 50.7228 18.6553 50.5884 18.6358 50.5491L18.6355 50.5485C18.6018 50.4812 18.5532 50.3621 18.5546 50.2271C18.5558 50.113 18.5916 49.9477 18.7997 49.7557L18.7996 49.7558C18.7996 49.7558 18.807 49.7493 18.826 49.7351C18.8458 49.7201 18.8726 49.7009 18.9072 49.6771C18.9765 49.6293 19.0686 49.569 19.1828 49.4967C19.4109 49.3522 19.715 49.1674 20.0755 48.9528C20.7958 48.524 21.7296 47.9833 22.7043 47.4234C23.3602 47.0467 24.0353 46.6607 24.6754 46.2949C25.9317 45.5768 27.0527 44.936 27.6272 44.5935C28.2999 44.1928 29.2599 43.6926 30.4078 43.0966L30.516 43.0404C31.6326 42.4607 32.9095 41.7978 34.2331 41.0653C36.96 39.5564 39.919 37.7345 42.1245 35.6985C43.3717 34.5484 44.4335 33.2944 44.9432 31.9495C45.4659 30.5704 45.3976 29.1185 44.4311 27.6617C43.4559 26.1905 41.9637 25.3674 40.1886 24.9926C38.4232 24.6198 36.3509 24.6832 34.1488 24.9982L34.1487 24.9982C28.5056 25.8062 21.8034 28.4305 16.0324 31.3212C10.2692 34.208 5.35461 37.4011 3.30887 39.39L3.30859 39.3903C3.05437 39.6378 2.64967 39.6314 2.40407 39.3791L2.40399 39.379C2.15709 39.1254 2.16224 38.7208 2.41707 38.4724C4.43242 36.5121 9.43453 33.2352 15.4129 30.2326C21.3836 27.2339 28.2482 24.5495 33.9667 23.7309C39.3058 22.9666 43.477 23.9043 45.4982 26.9524C46.622 28.6471 46.798 30.2953 46.3181 31.8887C45.8305 33.5076 44.6526 35.1095 42.9924 36.6405L42.9923 36.6406C40.8183 38.6468 37.8698 40.481 35.0874 42.0331C33.7227 42.7943 32.4058 43.4835 31.247 44.0899L31.1873 44.1211C30.0205 44.7318 29.0061 45.2633 28.2849 45.6933C27.8219 45.9679 26.9408 46.4842 25.9138 47.0781Z" fill="black" stroke="black"/>
<path d="M107.235 112.243L106.633 110.958C106.372 110.402 106.117 109.848 105.863 109.295C104.995 107.409 104.138 105.547 103.118 103.749L103.118 103.749C99.6048 97.5507 94.6481 91.8681 88.6446 88.0402C88.3442 87.8499 87.9487 87.9386 87.7584 88.2352C87.5684 88.5356 87.6574 88.931 87.9541 89.1211C93.813 92.8519 98.6069 98.3891 102.003 104.38L102.003 104.381C103.031 106.197 103.905 108.098 104.769 109.979C105.191 110.899 105.612 111.813 106.047 112.711C106.062 112.741 106.097 112.818 106.144 112.919C106.215 113.072 106.313 113.283 106.406 113.476C106.489 113.649 106.574 113.821 106.648 113.961C106.686 114.031 106.718 114.09 106.745 114.136C106.77 114.178 106.783 114.196 106.786 114.201C106.787 114.201 106.787 114.202 106.787 114.201L106.789 114.204C106.931 114.378 107.067 114.437 107.17 114.459C107.284 114.483 107.392 114.469 107.468 114.45L107.474 114.449L107.474 114.449C107.589 114.423 107.725 114.365 107.863 114.224C107.963 114.119 108.182 113.779 108.385 113.18L108.386 113.178C108.721 112.199 109.123 110.485 109.475 108.889C109.582 108.404 109.685 107.927 109.78 107.487C109.991 106.512 110.162 105.72 110.249 105.429C110.249 105.429 110.249 105.429 110.249 105.429L110.728 105.573C113.15 97.5304 116.613 90.34 120.202 82.8866C120.686 81.8835 121.171 80.8755 121.656 79.8601L107.235 112.243ZM107.235 112.243L107.571 110.864C108.112 108.644 108.863 105.589 109.024 105.06L109.025 105.058C111.478 96.9061 114.987 89.6166 118.646 82.0134C119.113 81.0448 119.581 80.0711 120.051 79.0899C120.204 78.7703 120.586 78.6361 120.903 78.7876C121.22 78.9396 121.357 79.3236 121.205 79.6455L107.235 112.243Z" fill="black" stroke="black"/>
</g>
<defs>
<filter id="filter0_d_1_974" x="0.722412" y="22.9785" width="121.045" height="95.993" filterUnits="userSpaceOnUse" color-interpolation-filters="sRGB">
<feFlood flood-opacity="0" result="BackgroundImageFix"/>
<feColorMatrix in="SourceAlpha" type="matrix" values="0 0 0 0 0 0 0 0 0 0 0 0 0 0 0 0 0 0 127 0" result="hardAlpha"/>
<feOffset dx="-1" dy="4"/>
<feComposite in2="hardAlpha" operator="out"/>
<feColorMatrix type="matrix" values="0 0 0 0 0 0 0 0 0 0 0 0 0 0 0 0 0 0 1 0"/>
<feBlend mode="normal" in2="BackgroundImageFix" result="effect1_dropShadow_1_974"/>
<feBlend mode="normal" in="SourceGraphic" in2="effect1_dropShadow_1_974" result="shape"/>
</filter>
</defs>
</svg>
