<svg width="48" height="69" viewBox="0 0 48 69" fill="none" xmlns="http://www.w3.org/2000/svg">
<path fill-rule="evenodd" clip-rule="evenodd" d="M22.7978 62.4171C22.7973 62.4081 22.7899 62.4009 22.7809 62.4007C21.6103 62.3715 20.4123 62.2572 19.2333 61.9268C18.8025 61.8062 18.3623 61.6874 17.9483 61.4872C17.219 61.1403 16.5414 60.6442 16.008 60.0275C15.7388 59.7148 15.5081 59.4014 15.3017 59.0303C15.0854 58.6591 14.9592 58.2283 14.9088 57.7962C14.8578 57.4114 14.8989 57.0154 14.9934 56.6417C15.0959 56.2668 15.2787 55.9255 15.492 55.6134C16.0645 54.8276 17.035 54.357 17.9408 54.4434C18.2249 54.4614 18.1845 54.6081 18.0024 54.8307C17.8078 55.0278 17.5454 55.4294 17.2538 55.6495C16.9735 55.8397 16.8112 56.1263 16.6303 56.3433C16.463 56.5802 16.3555 56.84 16.3076 57.1043C16.2361 57.3641 16.2231 57.6433 16.2784 57.9336C16.3356 58.2227 16.4792 58.5105 16.6744 58.8506C16.9119 59.228 17.2389 59.5562 17.6163 59.8242C18.0005 60.0853 18.4295 60.288 18.8715 60.4652C19.8488 60.8525 20.948 61.0216 22.0583 61.0918C22.744 61.131 23.4403 61.1409 24.1255 61.1018C25.1656 61.0408 26.2144 60.9115 27.1997 60.6063C27.9719 60.3905 28.6868 60.061 29.3688 59.6855C29.5205 59.6041 29.6617 59.5133 29.8096 59.4257C30.3592 59.0999 30.5656 59.0408 30.8155 59.1304C30.8715 59.1503 30.9355 59.1615 30.9803 59.1869C31.1214 59.2566 31.017 59.573 30.6371 59.9336C30.0707 60.4596 29.4093 60.9258 28.6893 61.3001C28.3287 61.4841 27.9582 61.6632 27.5728 61.7999C27.1836 61.9224 26.7869 62.0256 26.3872 62.1064C25.207 62.3552 23.9998 62.4352 22.8151 62.4335C22.8059 62.4335 22.7983 62.4263 22.7978 62.4171Z" fill="#231F20"/>
<path fill-rule="evenodd" clip-rule="evenodd" d="M26.006 62.859C26.0044 62.8545 25.9996 62.8519 25.9949 62.8531C25.3603 63.0211 24.7147 63.1411 24.0672 63.2401C23.8279 63.2725 23.5935 63.3035 23.3535 63.3359C22.508 63.3968 21.6575 63.3782 20.8195 63.2607C20.4464 63.2115 20.0747 63.1456 19.7079 63.0679C19.2428 62.9504 18.7542 62.8311 18.3575 62.5252C18.2313 62.4357 18.3314 62.3206 18.5105 62.2498C18.6939 62.1758 18.9301 62.1578 19.1664 62.233C19.992 62.5426 20.8972 62.6819 21.8254 62.7633C22.3837 62.8056 22.9674 62.744 23.535 62.662C24.1629 62.5905 24.7859 62.4611 25.4032 62.307C25.7837 62.2162 26.1574 62.0912 26.5316 61.9756L27.3746 61.6766C27.65 61.5647 27.9236 61.4459 28.1934 61.3234C28.6062 61.1195 28.9898 60.8783 29.3896 60.6638L29.6476 60.5128C29.9771 60.3343 30.1076 60.3206 30.2357 60.3747C30.2649 60.3878 30.2991 60.3965 30.3215 60.4127C30.3955 60.4643 30.3028 60.6072 30.0883 60.795C29.4561 61.3583 28.6932 61.822 27.8794 62.1845C27.2846 62.4692 26.6558 62.6887 26.017 62.8648C26.0124 62.8661 26.0075 62.8636 26.006 62.859Z" fill="#231F20"/>
<path fill-rule="evenodd" clip-rule="evenodd" d="M27.2375 66.8541C27.2423 66.8579 27.2491 66.8578 27.2537 66.8538C27.4524 66.682 27.6227 66.4401 27.7792 66.1868C27.8401 66.0954 27.8625 65.9791 27.9197 65.8821C28.1149 65.5296 28.2871 65.1485 28.458 64.7544C28.5401 64.5828 28.5998 64.3994 28.6669 64.2166C28.7577 63.9847 28.8161 63.7211 29.0773 63.5315C29.1519 63.4731 29.2377 63.5899 29.316 63.7317C29.3906 63.8815 29.4814 64.0059 29.4577 64.1265C29.3446 64.5157 29.2955 65.0205 29.0151 65.4575C28.8634 65.7236 28.8012 66.0401 28.6657 66.331C28.5221 66.6518 28.3294 66.9608 28.1136 67.2542C27.9582 67.4233 27.8221 67.603 27.6331 67.7435C27.4978 67.8535 27.3526 67.9506 27.1992 68.0334L27.196 68.0351C27.0468 68.1308 26.8789 68.1793 26.7161 68.2409C26.5911 68.2987 26.4661 68.3378 26.3362 68.3739C26.2088 68.4075 26.0745 68.4684 25.9427 68.479C25.8848 68.4864 25.8277 68.4877 25.7686 68.4827C25.5504 68.4553 25.4863 68.3894 25.4702 68.17C25.4658 68.1234 25.459 68.078 25.459 68.0357C25.4596 67.9027 25.5585 67.7354 25.6853 67.6751C26.0738 67.4824 26.3629 67.419 26.6458 67.281C26.8319 67.1585 27.0451 67.0572 27.2196 66.8559C27.2241 66.8506 27.232 66.8498 27.2375 66.8541Z" fill="#231F20"/>
<path fill-rule="evenodd" clip-rule="evenodd" d="M17.4617 55.8981C17.4565 55.8907 17.4469 55.8879 17.4385 55.8913C17.2856 55.9544 17.1067 56.0247 16.9518 56.1446C16.8946 56.19 16.8604 56.2547 16.8032 56.3013C16.5943 56.4648 16.3885 56.6563 16.2368 56.8826C16.1809 56.9821 16.1461 57.0996 16.1529 57.2022C16.1492 57.3483 16.2014 57.4266 16.0932 57.5391C16.0547 57.577 15.8147 57.6896 15.5467 57.7182C15.2881 57.7617 14.9499 57.638 14.9232 57.4664C14.8529 57.1593 14.9132 56.8907 15.0071 56.6669C15.0979 56.4375 15.2384 56.2491 15.4075 56.0899C15.6139 55.9078 15.7053 55.6572 15.8856 55.4639C16.0857 55.2562 16.3071 55.0704 16.5595 54.918C16.7074 54.8192 16.8828 54.752 17.0481 54.6781C17.308 54.5696 17.5923 54.5222 17.8731 54.501C17.8764 54.5007 17.8797 54.5005 17.8831 54.5003C17.9968 54.4984 18.1131 54.471 18.2318 54.4661C18.3481 54.4717 18.4712 54.4779 18.5931 54.4978C18.649 54.5015 18.69 54.532 18.7348 54.5599C18.8902 54.683 18.894 54.7906 18.7827 55.0125C18.7572 55.0635 18.7336 55.1139 18.705 55.1611C18.6092 55.3165 18.4656 55.4272 18.3543 55.4869C18.0087 55.6821 17.9906 55.7393 17.8445 55.7735C17.7534 55.7939 17.6224 55.8339 17.4867 55.9042C17.478 55.9087 17.4673 55.9061 17.4617 55.8981Z" fill="#231F20"/>
<path fill-rule="evenodd" clip-rule="evenodd" d="M6.78415 45.4438C6.78737 45.4401 6.78736 45.4345 6.78413 45.4308C5.29679 43.7055 3.95657 41.837 2.88487 39.8128C2.67784 39.4491 2.49817 39.0711 2.32161 38.6913C2.13448 38.3164 1.966 37.934 1.82239 37.5399C0.725714 34.7982 0.277471 31.8047 0.496308 28.8784C0.531745 28.2281 0.63992 27.5822 0.718254 26.9362C0.857514 26.3009 0.935226 25.6518 1.11863 25.0326C1.48481 23.423 2.11023 21.8228 3.07946 20.4712C3.38409 20.0516 3.41144 20.1597 3.26348 20.5757C3.1093 20.9916 2.85067 21.7444 2.5075 22.5987C2.3558 22.9785 2.22152 23.3658 2.10153 23.7563C1.9803 24.1448 1.89823 24.5539 1.7826 24.948C1.66945 25.3447 1.56749 25.7432 1.49973 26.1498C1.42885 26.5551 1.32192 26.9549 1.27902 27.3646C1.01915 28.9922 0.999882 30.6534 1.15841 32.304C1.34679 34.2841 1.96351 36.2915 2.82394 38.1367C3.75959 40.174 4.95822 42.0982 6.36761 43.8632C7.22369 44.958 8.14939 46.0018 9.12297 46.9978C10.5908 48.5147 12.1656 49.9446 13.7708 51.2993C15.0198 52.3531 16.2905 53.3285 17.547 54.3531C17.8224 54.5806 18.0996 54.7932 18.3682 55.0351C19.3735 55.9179 19.6452 56.261 19.7447 56.5675C19.7683 56.6366 19.8081 56.7186 19.8137 56.7659C19.8298 56.9275 19.381 56.6167 18.6306 56.0061C16.3894 54.2113 13.9629 52.3524 11.6564 50.3139C9.9476 48.8001 8.29029 47.1988 6.78418 45.4569C6.78094 45.4531 6.78093 45.4476 6.78415 45.4438Z" fill="#231F20"/>
<path fill-rule="evenodd" clip-rule="evenodd" d="M3.80799 19.2912C3.8182 19.2957 3.83015 19.2925 3.83685 19.2836C4.81294 17.9825 5.96149 16.8373 7.21429 15.8322C8.50121 14.8636 9.87889 14.0293 11.3343 13.361C14.255 12.0629 17.4431 11.3554 20.6535 11.4561C21.8248 11.4922 22.9936 11.6271 24.1238 11.8515C24.6933 11.964 25.2609 12.0996 25.8235 12.2656C26.3862 12.4285 26.9364 12.6666 27.4897 12.8699C29.407 13.7079 31.1129 14.9985 32.4732 16.5571C33.8397 18.1151 34.8698 19.9292 35.5761 21.8385C37.011 25.6606 37.2864 29.8099 36.7517 33.7738C36.5379 35.54 36.1624 37.2826 35.6986 38.9917C35.2503 40.7076 34.6616 42.375 34.0362 44.0119C33.2298 46.1157 32.2625 48.1586 31.1838 50.1362C30.1139 52.1188 28.8978 54.0181 27.578 55.8303C26.7505 56.9587 26.7095 56.6964 27.177 55.5947C27.4163 55.0483 27.7545 54.2749 28.1866 53.3628C28.6031 52.4415 29.1192 51.3852 29.7085 50.2593C30.7592 48.2643 31.6588 46.2009 32.5198 44.1319C33.3629 42.0542 34.0828 39.9292 34.6261 37.7632C35.7228 33.4424 36.0616 28.9016 35.0172 24.5689C34.6989 23.2814 34.2519 22.0125 33.6625 20.8064C33.0707 19.601 32.3041 18.4807 31.4095 17.4828C30.5118 16.4888 29.4754 15.6109 28.3047 14.9619C27.1359 14.3116 25.8944 13.8136 24.5714 13.5071C18.7834 12.0585 12.3315 13.5649 7.69549 17.3709C6.27864 18.5435 5.04706 19.946 4.14311 21.5394C3.94044 21.9491 3.72285 22.3532 3.5295 22.7667L3.0539 24.0523C2.81641 24.9476 2.56898 25.844 2.44837 26.7642L2.36195 27.2833L2.31843 27.808L2.23513 28.858L2.24196 29.9118L2.24756 30.4384L2.29667 30.9637C2.3806 32.37 2.70513 33.752 3.10426 35.103C3.51209 36.4558 4.10084 37.7483 4.74118 39.0085C5.41137 40.255 6.17109 41.4517 6.99732 42.5988C9.59477 46.1599 12.7928 49.1185 16.0716 52.015C16.7965 52.6535 17.5189 53.2634 18.2407 53.9273C20.9221 56.3613 21.6507 57.43 21.7906 58.2954C21.8211 58.4931 21.854 58.7411 21.8378 58.8537C21.8217 58.9513 21.7608 58.9419 21.6563 58.8543C21.5469 58.766 21.4331 58.595 21.2006 58.375C20.7735 57.9286 20.0635 57.2335 19.0806 56.3712C16.135 53.8428 12.9656 51.2714 10.0666 48.2966C7.17326 45.3324 4.46515 41.9609 2.68523 37.9995C2.02188 36.5347 1.52515 34.9849 1.18073 33.3977C0.829469 31.808 0.739945 30.1636 0.790302 28.5354C0.850607 26.9009 1.17513 25.2957 1.59851 23.7297C2.08956 22.1444 2.83595 20.648 3.77872 19.2994C3.78527 19.29 3.79752 19.2866 3.80799 19.2912Z" fill="#231F20"/>
<path fill-rule="evenodd" clip-rule="evenodd" d="M19.9002 61.3858C19.8994 61.395 19.9057 61.4034 19.9149 61.4051C21.4949 61.6921 23.1744 61.6437 24.8213 61.3754C25.42 61.2703 26.0268 61.1037 26.6074 60.9763C27.5841 60.7232 28.5794 60.2582 29.4877 59.7192C30.3942 59.1715 31.2397 58.5007 31.8291 57.6856C32.3258 56.9508 32.442 56.0698 32.0013 55.348C31.7271 54.8899 31.267 54.5119 30.7709 54.2016C30.2642 53.9032 29.724 53.6315 29.1495 53.427C28.7927 53.307 28.8462 53.1901 29.2136 53.0857C29.5679 53.0049 30.2972 52.8911 31.0401 53.2225C31.6885 53.5122 32.327 53.9051 32.8443 54.5367C32.9758 54.6883 33.0815 54.862 33.173 55.0462C33.3673 55.4377 33.4909 55.8642 33.5257 56.2999C33.5313 56.5162 33.494 56.7301 33.4716 56.9446C33.3074 57.7851 32.8704 58.4522 32.3967 59.0049C31.9192 59.565 31.3572 59.9871 30.779 60.3682C30.0852 60.8184 29.3659 61.2243 28.613 61.5862C28.2363 61.7664 27.8496 61.9324 27.4486 62.0761C27.2503 62.1513 27.0351 62.206 26.83 62.27L26.2313 62.4006C24.4856 62.7891 22.6758 62.9924 20.8661 62.8401C19.7538 62.7425 18.6472 62.5094 17.5934 62.1015C16.7977 61.7839 16.0473 61.3337 15.387 60.763C14.7361 60.1824 14.204 59.4332 13.941 58.5641C13.7507 57.8908 13.7221 57.1336 13.9515 56.446C14.1878 55.7609 14.6298 55.1709 15.157 54.7183C15.3895 54.5175 15.6251 54.3334 15.8894 54.1793C16.3768 53.8914 16.743 53.8062 17.0003 53.7739C17.2627 53.7534 17.4318 53.8131 17.5835 53.938C17.6525 53.9934 17.7346 54.0425 17.7793 54.1009C17.9298 54.303 17.5798 54.5939 17.0035 54.9576C16.1449 55.4861 15.4231 56.2178 15.226 56.9987C15.1067 57.3878 15.1284 57.772 15.2198 58.178C15.3305 58.584 15.5686 58.98 15.8595 59.3493C16.782 60.4391 18.3102 61.0948 19.8854 61.3664C19.8947 61.368 19.9011 61.3764 19.9002 61.3858Z" fill="#231F20"/>
<path fill-rule="evenodd" clip-rule="evenodd" d="M18.2435 58.4457C18.2408 58.4537 18.2446 58.4625 18.2524 58.4657C19.1279 58.8305 20.1008 59.0692 21.0959 59.1861C21.4615 59.2308 21.8314 59.2246 22.2 59.2389C23.5019 59.2961 24.8329 59.1997 26.108 58.8746C26.6719 58.7291 27.2265 58.5295 27.7344 58.2684C28.3878 57.9265 28.9566 57.4851 29.4615 56.9946C29.6219 56.8423 29.7412 56.9293 29.7636 57.1991C29.7997 57.4733 29.6865 57.9501 29.3147 58.2883C27.9955 59.4366 26.3629 59.9719 24.7378 60.131C23.7642 60.2237 22.7602 60.3729 21.7586 60.3443C20.6613 60.3113 19.5578 60.1683 18.4954 59.8258C17.8432 59.6157 17.2053 59.3346 16.6166 58.9554C16.1733 58.6651 15.7593 58.3126 15.4186 57.8886C15.2594 57.6679 15.0996 57.4478 14.9809 57.201C14.8448 56.9797 14.7453 56.6272 14.7515 56.3275C14.7583 55.8407 14.9442 55.4086 15.1823 55.048C15.4242 54.6862 15.7276 54.3803 16.0776 54.1317C16.2293 54.0185 16.3872 53.9184 16.5613 53.8333C17.2252 53.5379 17.5286 53.6523 17.6778 53.9147C17.7133 53.9756 17.7549 54.0341 17.7723 54.0937C17.8189 54.2958 17.6038 54.4804 17.2843 54.6564C16.7969 54.9131 16.3381 55.3334 16.0888 55.7686C15.9638 55.9837 15.9091 56.1938 15.9215 56.3325C15.9234 56.4046 15.9452 56.4599 15.9731 56.5184C16.0067 56.5905 16.1 56.7403 16.1565 56.8497C16.5913 57.5287 17.3526 58.0711 18.2344 58.4256C18.2423 58.4288 18.2463 58.4377 18.2435 58.4457Z" fill="#231F20"/>
<path fill-rule="evenodd" clip-rule="evenodd" d="M21.8178 64.134C21.8166 64.1434 21.8227 64.1521 21.8319 64.1543C22.6474 64.3436 23.5337 64.3719 24.4175 64.2922C24.7439 64.2699 25.0609 64.1791 25.3855 64.1256C26.5337 63.9385 27.6683 63.581 28.7538 63.1054C29.23 62.8841 29.6857 62.6124 30.0986 62.3034C30.6438 61.9136 31.0777 61.4306 31.526 60.9817C31.677 60.8462 31.8119 60.9295 31.876 61.1875C31.9058 61.3149 31.9313 61.5014 31.8934 61.6954C31.8486 61.8751 31.7622 62.0734 31.6242 62.2512C30.5891 63.4051 29.3009 64.2319 27.8741 64.6677C27.0193 64.9127 26.1682 65.2689 25.2667 65.425C24.2826 65.6034 23.2692 65.6662 22.2577 65.5648C21.6373 65.4989 21.0125 65.3516 20.4274 65.1433C19.5403 64.8176 18.7022 64.3177 18.0072 63.6662C17.4644 63.1676 16.9652 62.6068 16.6065 61.9484C16.5331 61.8017 16.461 61.6575 16.3995 61.5039C16.2198 60.9177 16.3224 60.6932 16.5686 60.5117C16.6251 60.47 16.6761 60.4215 16.7302 60.3942C16.9037 60.3028 17.1673 60.4775 17.396 60.7964C17.7324 61.272 18.0252 61.7203 18.3591 62.1312C18.6941 62.5409 19.0889 62.894 19.5365 63.1931C20.1897 63.6314 20.9992 63.9526 21.8032 64.1136C21.8127 64.1155 21.8191 64.1244 21.8178 64.134Z" fill="#231F20"/>
<path fill-rule="evenodd" clip-rule="evenodd" d="M18.3784 25.9952C18.3868 25.9926 18.3922 25.9847 18.3916 25.976C18.3702 25.6692 18.3687 25.3546 18.3858 25.0328L18.4225 24.5286L18.4828 24.1649C18.5176 24.0337 18.5649 23.9069 18.6053 23.7776C18.7781 23.2579 19.1822 22.9197 19.6609 22.8208C20.1446 22.7251 20.6488 22.8911 21.0368 23.2442C21.1306 23.3356 21.2289 23.4295 21.3066 23.5333C21.393 23.6377 21.4751 23.7391 21.5105 23.8068C21.6093 23.961 21.6877 24.1127 21.7623 24.2644C21.9102 24.5665 22.024 24.8649 22.126 25.1621C22.3181 25.7614 22.4791 26.3831 22.5518 26.9999C22.8583 29.4674 22.4872 31.9554 21.4073 34.1904C21.209 34.5976 20.9771 34.9918 20.7209 35.3735C20.591 35.5656 20.4169 35.7596 20.264 35.9498C20.0818 36.1245 19.8966 36.3029 19.6883 36.4534C18.8372 37.0701 17.697 37.2324 16.7626 37.011C15.9227 36.8388 15.1779 36.4826 14.5021 36.0574C13.8251 35.6271 13.2164 35.1267 12.6656 34.5448C12.1061 33.9442 11.6715 33.2852 11.306 32.5852C10.9448 31.8845 10.6476 31.1441 10.4984 30.3427C10.3517 29.5519 10.3249 28.6635 10.7122 27.841C10.8956 27.4413 11.148 27.0832 11.5148 26.781C11.8742 26.4783 12.3765 26.3029 12.8534 26.3179C13.8207 26.3502 14.5494 26.9327 15.0989 27.4643C15.6665 28.017 16.1359 28.6436 16.5462 29.2945C17.9967 31.616 18.8074 34.2196 19.577 36.7195C20.08 38.334 20.5214 39.9921 20.8024 41.6856C20.9342 42.5336 21.0355 43.389 21.0616 44.2482C21.0877 45.108 21.0436 45.9666 20.9628 46.8171C20.8335 47.8777 20.6768 47.708 20.512 46.8158C20.4213 46.3396 20.3019 45.7216 20.1645 45.0042C20.0004 44.2638 19.8356 43.4108 19.6783 42.482C19.3973 40.8345 18.928 39.2218 18.425 37.5979C17.9351 35.9554 17.4458 34.3234 16.8515 32.7692C16.2559 31.2193 15.5316 29.6993 14.4878 28.5205C14.2304 28.2277 13.9395 27.9492 13.6665 27.7614C13.383 27.5743 13.0803 27.4587 12.8235 27.4593C12.5661 27.4524 12.3417 27.5445 12.1241 27.7546C11.9065 27.966 11.7219 28.2824 11.6286 28.5889C11.3868 29.3654 11.5733 30.362 11.9401 31.2597C12.305 32.1649 12.8509 33.0483 13.5155 33.7434C14.2105 34.4472 15.0467 35.0527 15.9326 35.4543C16.8142 35.836 17.7878 36.0176 18.5493 35.6613C18.9702 35.4786 19.3321 35.1565 19.6311 34.7524C19.9351 34.3129 20.2037 33.8342 20.4262 33.3318C20.859 32.321 21.1474 31.2305 21.2699 30.1226C21.4036 29.0148 21.3756 27.8876 21.1797 26.804C21.0691 26.2675 20.923 25.7384 20.716 25.2324C20.6134 24.9831 20.4971 24.7443 20.3659 24.5392C20.2571 24.3682 20.2018 24.3029 20.0744 24.2302C19.9239 24.145 19.7349 24.2352 19.6752 24.3912C19.6423 24.4646 19.6143 24.5479 19.6025 24.6231C19.5751 24.7474 19.5447 24.9284 19.5391 25.0869C19.5068 25.7496 19.582 26.4465 19.7113 27.1254C19.8425 27.805 20.0302 28.4789 20.2926 29.1105C20.5487 29.726 20.8975 30.3713 21.3433 30.6797C21.7119 30.9054 22.167 31.016 22.6041 30.9333C23.0467 30.8587 23.4813 30.6212 23.8624 30.3085C24.6202 29.6763 25.2276 28.7729 25.5186 27.8342C25.6622 27.3897 25.6665 26.8786 25.6025 26.3943C25.5329 25.9175 25.3588 25.4431 25.0734 25.2C24.7781 24.9551 24.4834 24.9582 24.172 25.2523C23.8586 25.5525 23.6031 26.0064 23.4104 26.4702C23.2512 26.8326 23.1586 27.2019 23.0672 27.6097C22.9646 28.0045 22.8963 28.4074 22.8304 28.8096C22.7116 29.6153 22.6401 30.4266 22.6227 31.2386C22.586 32.8625 22.7091 34.4851 22.9907 36.0847C23.1151 36.7897 23.2699 37.4723 23.4458 38.1699C23.7666 39.4655 24.0433 40.2979 24.1925 40.9004C24.3492 41.5003 24.374 41.8746 24.3286 42.2103C24.3075 42.3632 24.305 42.5566 24.2665 42.6592C24.167 42.9998 23.3973 42.0996 22.7073 40.1587C21.7082 37.2864 21.2083 34.1425 21.3451 30.9402C21.388 30.1407 21.4632 29.3368 21.5975 28.5361C21.6728 28.1376 21.7175 27.7322 21.8139 27.3337L21.9457 26.7263C22.0041 26.4969 22.0725 26.2905 22.1483 26.0797C22.3044 25.6626 22.489 25.2523 22.7601 24.8376C23.0312 24.4422 23.393 23.9554 24.1807 23.6937C24.5562 23.6085 24.974 23.6004 25.3277 23.7726C25.7013 23.8951 25.9674 24.1239 26.1844 24.3645C26.6146 24.8581 26.7756 25.376 26.8869 25.8584C27.0243 26.5864 27.0417 27.2535 26.8571 28.0238C26.6631 28.7251 26.3554 29.3219 25.9824 29.8783C25.6056 30.4304 25.1574 30.9371 24.6022 31.366C24.0501 31.7869 23.3613 32.1475 22.5469 32.2122C22.3485 32.2414 22.1384 32.2059 21.9364 32.1966C21.7343 32.1711 21.5385 32.1071 21.342 32.0561C21.158 31.9815 20.9808 31.8932 20.8036 31.8062C20.6053 31.6899 20.4337 31.5488 20.2901 31.4083C19.743 30.837 19.462 30.242 19.2115 29.6501C18.7433 28.4649 18.4633 27.2717 18.3652 26.0145C18.3646 26.0058 18.37 25.9977 18.3784 25.9952Z" fill="#231F20"/>
<path fill-rule="evenodd" clip-rule="evenodd" d="M43.0222 27.4925C43.0079 27.6013 42.8643 27.5535 42.6411 27.4217C42.5697 27.38 42.4012 27.2066 42.3956 27.1637C42.3844 27.0803 42.3751 26.9977 42.38 26.9268C42.38 26.8839 42.6623 26.4332 42.7624 26.2746C42.8556 26.1198 42.9781 25.9949 43.1111 25.883C43.3754 25.648 43.6582 25.4297 43.9573 25.2308C44.0238 25.1873 44.0984 25.1562 44.178 25.1357C44.4553 25.0704 44.694 24.9479 44.9302 24.8049C44.97 24.7819 45.016 24.7701 45.0384 24.7104C45.0676 24.6023 45.7782 24.3206 45.8864 24.3337C46.1457 24.3443 46.3931 24.3312 46.6449 24.3629C46.6803 24.3673 46.7133 24.3418 46.7537 24.3915C46.8463 24.5059 46.9134 24.4748 46.9874 24.4748C47.0888 24.4723 47.192 24.4841 47.2952 24.5177C47.3461 24.5339 47.4002 24.6004 47.4512 24.6526C47.4972 24.6992 47.4854 24.8858 47.473 24.9069C47.4357 24.9684 47.4755 25.0524 47.4842 25.1288C47.4906 25.1819 47.4762 25.2319 47.4383 25.2697C47.3987 25.3091 47.3409 25.3623 47.2799 25.4164C47.1034 25.5731 46.8677 25.7006 46.648 25.7866C46.4751 25.855 46.3005 25.937 46.2675 25.9625C46.1949 26.0118 46.0976 25.9793 46.0212 26.0224C45.9864 26.0419 45.9469 26.0649 45.9064 26.0887C45.7131 26.2025 45.5177 26.394 45.2983 26.3479C45.289 26.346 45.2795 26.3435 45.2697 26.3405C45.2392 26.3324 45.2212 26.3492 45.2013 26.3617C45.0303 26.4686 44.8345 26.5326 44.6449 26.6172C44.5498 26.6626 44.4683 26.7297 44.3807 26.7875C44.3645 26.7981 44.3402 26.7962 44.3203 26.8012C44.2955 26.8074 44.2675 26.8093 44.2482 26.8242C44.0456 26.9697 43.8062 27.076 43.6359 27.2681C43.5948 27.3079 43.3026 27.4005 43.261 27.4571C43.2367 27.4863 43.0278 27.4478 43.0222 27.4925Z" fill="#231F20"/>
<path fill-rule="evenodd" clip-rule="evenodd" d="M37.0318 13.6401C37.0168 13.752 36.8645 13.701 36.632 13.5667C36.558 13.5238 36.3827 13.346 36.3759 13.3019C36.3628 13.2148 36.3516 13.1284 36.3541 13.0538C36.3541 13.009 36.6245 12.5266 36.7153 12.3519C36.8011 12.1834 36.918 12.0466 37.0448 11.9223C37.3041 11.6705 37.5807 11.4399 37.8555 11.2185C37.9171 11.1701 37.9879 11.1328 38.0663 11.1104C38.3348 11.0308 38.5499 10.8816 38.7439 10.7069C38.7762 10.6777 38.8173 10.6596 38.8216 10.5931C38.8328 10.4837 39.3855 10.074 39.475 10.0535C39.7075 10.005 39.9164 9.92293 40.1365 9.8533C40.1688 9.84522 40.1844 9.81041 40.2453 9.84398C40.3871 9.92231 40.4275 9.86325 40.4896 9.83341C40.5761 9.79113 40.665 9.75259 40.77 9.73332C40.8222 9.72337 40.9087 9.75818 40.9851 9.77932C41.0548 9.79859 41.1673 9.97329 41.1698 10.0006C41.1766 10.0784 41.2661 10.1331 41.3233 10.1977C41.3426 10.2195 41.3681 10.2481 41.3811 10.2674C41.6748 10.661 40.9444 11.2146 40.5868 11.5512C40.524 11.6103 40.4771 11.6557 40.4623 11.6736C40.43 11.7128 40.369 11.7128 40.3168 11.7234C40.2919 11.7308 39.8095 12.1872 39.7877 12.1959C39.6659 12.2562 39.5844 12.3718 39.4054 12.3438C39.37 12.3382 39.3513 12.3581 39.3308 12.3749C39.1542 12.516 38.9429 12.6031 38.7427 12.7056C38.642 12.7585 38.5605 12.8381 38.4685 12.9021C38.4517 12.9145 38.425 12.9121 38.4045 12.9183C38.3777 12.9257 38.3473 12.9276 38.3274 12.9444C38.1272 13.1185 37.863 13.2142 37.6864 13.4162C37.6429 13.4573 37.3289 13.5474 37.2854 13.6059C37.2593 13.6357 37.038 13.5941 37.0318 13.6401Z" fill="#231F20"/>
<path fill-rule="evenodd" clip-rule="evenodd" d="M28.9808 66.7691C28.9744 66.7655 28.9663 66.7673 28.9621 66.7733C28.6348 67.2392 28.2463 67.7086 27.7305 68.0745C27.5346 68.1995 27.3512 68.3493 27.1249 68.4277C26.7364 68.5887 26.2794 68.6297 25.8834 68.5669C25.4818 68.506 25.1181 68.3692 24.7923 68.1927C24.5026 68.0372 24.2229 67.8775 23.9568 67.7052C23.7883 67.5921 23.6155 67.4833 23.4594 67.3546C23.3096 67.2178 23.1834 67.0549 23.0783 66.8765C23.0143 66.7634 23.1324 66.6714 23.3227 66.6179C23.7501 66.5043 24.1546 66.7524 24.5307 66.9851C24.9484 67.2435 25.3668 67.4606 25.7833 67.6213C26.165 67.7587 26.5238 67.6536 26.8732 67.4603C27.2543 67.2539 27.5931 66.9113 27.8853 66.5054C28.0687 66.2586 28.2322 65.9838 28.3889 65.7046C28.6208 65.2757 28.8551 64.833 29.0578 64.3754C29.212 64.0192 29.3171 63.6375 29.4855 63.2738C29.5235 63.1936 29.5521 63.1097 29.5962 63.0319C29.7777 62.7522 29.9238 62.7186 30.1856 62.8262C30.2421 62.8485 30.2975 62.8641 30.3422 62.8865C30.4778 62.9511 30.6065 63.2017 30.5542 63.4186C30.4075 64.0696 30.1358 64.6776 29.8107 65.321C29.575 65.7948 29.3094 66.2783 28.9998 66.7644C28.9957 66.7708 28.9874 66.7729 28.9808 66.7691Z" fill="#231F20"/>
<path fill-rule="evenodd" clip-rule="evenodd" d="M20.5798 6.59192C20.6488 6.68952 20.5139 6.77843 20.2708 6.85987C20.1931 6.88598 19.9562 6.88971 19.9195 6.86298C19.8499 6.81076 19.7796 6.75853 19.728 6.70507C19.7001 6.67087 19.5098 6.14616 19.4184 5.97395C19.3357 5.80547 19.2922 5.63575 19.2562 5.4654C19.1841 5.11974 19.0777 4.78092 19.0174 4.43774C19.0019 4.36189 19.0038 4.28356 19.0174 4.20336C19.0678 3.9267 19.0205 3.66248 18.9316 3.40634C18.9167 3.36345 18.9155 3.31682 18.8533 3.28511C18.8292 3.27361 18.8016 3.22875 18.774 3.16493C18.571 2.69586 18.6699 2.16827 18.7346 1.66124C18.7389 1.62518 18.7122 1.5941 18.7657 1.54934C18.89 1.44427 18.8458 1.37899 18.8546 1.30004C18.8565 1.27239 18.8582 1.24471 18.8604 1.21688C18.8734 1.04993 18.9609 0.907123 19.061 0.772837C19.1045 0.714398 19.2307 0.708181 19.2543 0.71875C19.3121 0.752321 19.3712 0.698234 19.4246 0.680204C19.4433 0.673988 19.4675 0.665905 19.485 0.66404C19.5138 0.658566 19.6642 0.755118 19.8163 0.867542C20.0685 1.05398 20.2306 1.33862 20.3566 1.62581C20.4536 1.84651 20.5592 2.07778 20.5866 2.12378C20.6445 2.21788 20.6068 2.34106 20.6421 2.44576C20.7134 2.65755 20.8314 3.00824 20.8309 3.03022C20.8378 3.18067 20.913 3.32179 20.8054 3.49152C20.7849 3.52509 20.7961 3.55369 20.803 3.58353C20.8577 3.83594 20.839 4.10078 20.8347 4.36065C20.8322 4.49369 20.862 4.623 20.8626 4.75543C20.8633 4.77905 20.8452 4.80454 20.8378 4.82941C20.8284 4.86049 20.8129 4.8922 20.8148 4.92204C20.8365 5.23227 20.7768 5.54809 20.8235 5.85396C20.8334 5.92484 20.7016 6.27112 20.7184 6.3507C20.7265 6.39671 20.5505 6.55337 20.5798 6.59192Z" fill="#231F20"/>
<path fill-rule="evenodd" clip-rule="evenodd" d="M0.45049 7.68291C0.318068 7.6655 0.385833 7.48831 0.579803 7.22907C0.641351 7.14638 0.878217 6.94992 0.929196 6.94122C1.02805 6.92319 1.12441 6.90641 1.20274 6.90454C1.24875 6.90827 1.70072 7.14825 1.87293 7.19923C2.03333 7.25766 2.16389 7.34595 2.28947 7.44231L3.08835 7.99997C3.14803 8.04162 3.19777 8.09696 3.24253 8.16286C3.39174 8.39288 3.6056 8.53898 3.84122 8.65213C3.88039 8.67078 3.91334 8.70249 3.97675 8.67949C4.07685 8.64343 4.6886 9.00712 4.75077 9.09043C4.89873 9.29559 5.0697 9.46842 5.23258 9.65679C5.25621 9.68353 5.29786 9.68477 5.29289 9.7544C5.28107 9.91542 5.35568 9.93158 5.41349 9.97759C5.49307 10.0422 5.56954 10.1144 5.63171 10.2082C5.66279 10.2542 5.6628 10.3506 5.67088 10.4327C5.67896 10.5073 5.54592 10.6813 5.52043 10.6938C5.44582 10.7292 5.42469 10.8362 5.38179 10.9163C5.36749 10.9431 5.34822 10.9779 5.33392 10.9984C5.30097 11.0419 4.61586 11.0749 4.56239 11.0419C4.55617 11.0388 4.35661 10.958 4.14399 10.8703C3.93137 10.7852 3.70756 10.6969 3.65782 10.6838C3.60622 10.6708 3.57949 10.6154 3.54592 10.5713C3.53162 10.5551 2.87013 10.3002 2.84713 10.2797C2.73149 10.1908 2.57607 10.1573 2.52323 9.97075C2.51328 9.93407 2.48406 9.9235 2.45857 9.91044C2.23352 9.78984 2.05012 9.60581 1.86174 9.43049C1.76413 9.34221 1.6485 9.27631 1.54343 9.19674C1.52478 9.18244 1.51794 9.1526 1.50427 9.13146C1.48686 9.10535 1.47567 9.06991 1.45204 9.0525C1.20336 8.86164 1.01499 8.60177 0.753256 8.41962C0.689221 8.37921 0.556178 8.02173 0.48717 7.9751C0.445516 7.94837 0.502091 7.68974 0.45049 7.68291Z" fill="#231F20"/>
</svg>
