<svg width="37" height="35" viewBox="0 0 37 35" fill="none" xmlns="http://www.w3.org/2000/svg">
<path d="M19.5479 4.4031C18.6713 5.80238 19.9271 9.81219 21.7001 11.2897C23.0602 12.3947 24.0665 11.888 24.3315 9.94798C24.6359 7.90326 23.1377 5.00064 21.4323 4.27109C20.1328 3.70088 19.9764 3.72964 19.5479 4.4031Z" fill="black"/>
<path d="M7.84038 5.33376C6.96374 6.73304 8.21957 10.7429 9.99262 12.2204C11.3527 13.3254 12.359 12.8186 12.624 10.8786C12.9284 8.83392 11.4302 5.9313 9.72476 5.20175C8.42528 4.63154 8.26883 4.66031 7.84038 5.33376Z" fill="black"/>
<path d="M2.88193 16.7075C3.24136 18.9226 7.35405 23.0018 11.0101 24.7375C12.1376 25.3003 14.0826 25.7031 15.8021 25.7769C18.5025 25.8751 18.8859 25.7851 22.3741 24.1786C25.7215 22.637 26.2387 22.2689 27.844 20.4042C29.889 17.9907 31.8424 12.8058 31.2223 11.3601C30.6796 10.095 29.8918 10.7176 28.3133 13.8252C26.5656 17.2272 25.5918 18.4981 23.558 19.9541C21.6144 21.3254 17.9796 22.3934 15.6935 22.2776C12.9776 22.1433 7.87127 19.3874 5.0947 16.5541C3.68105 15.1275 2.64514 15.1717 2.88193 16.7075Z" fill="black"/>
</svg>
